<?xml version="1.0" encoding="utf-8"?>
<!-- Generator: Adobe Illustrator 27.8.1, SVG Export Plug-In . SVG Version: 6.00 Build 0)  -->
<svg version="1.1" id="Слой_1" xmlns="http://www.w3.org/2000/svg" xmlns:xlink="http://www.w3.org/1999/xlink" x="0px" y="0px"
	 viewBox="0 0 92 90" style="enable-background:new 0 0 92 90;" xml:space="preserve">
<style type="text/css">
	.st0{fill:#CAE3ED;stroke:#2AACDF;stroke-miterlimit:10;}
	.st1{fill:#2AACDF;}
</style>
<path class="st0" d="M21,40.8l18.1-0.2l-10.5-7.1c0,0-15.7-2.7-28-4.8c11.4,4.1,26.9,9.8,26.9,9.8L21,40.8z"/>
<path class="st1" d="M64.9,47.8l6.6-2.5l-18.1,0.9l10.2,6.4L92,56.3L64.9,47.8z"/>
<path class="st1" d="M18.9,54.4l21.6-10.9l-14.5,3.6l2.2-2.4l-27,2.4l20.4,3.2L18.9,54.4z"/>
<path class="st0" d="M51.6,42.6l11.7-4l-3.7,3.1l28.6-4.1l-19-2.2l2.8-4.4L51.6,42.6z"/>
<path class="st0" d="M35.3,55.9L31,57.6l8.2-7.8L9,67.6l16.4-5.2L25,71.7L35.3,55.9z"/>
<path class="st1" d="M54.4,29.5l-6.3,10.4c0,0,15.9-10.4,29.8-19.4c-6,2-15.7,5.3-15.7,5.3L63,15.3l-8,17.3L54.4,29.5z"/>
<path class="st0" d="M59.9,59.9l-4.2-0.5l7.5,15.8l1.1-16l-13.1-9.4L59.9,59.9z"/>
<path class="st1" d="M33.6,26.2l4.6,2.5l-8.3-18.3l-0.7,18l13.4,10.5L33.6,26.2z"/>
<path class="st0" d="M40.7,20l5.2,15.9l7.6-18.6l-5.6,5.1L45.7,0L40.7,20z"/>
<path class="st1" d="M37.1,69.1l6.3-5.5l2,26.3L51.2,66l-5.5-16.2L37.1,69.1z"/>
</svg>
