<?xml version="1.0" encoding="utf-8"?>
<!-- Generator: Adobe Illustrator 27.8.1, SVG Export Plug-In . SVG Version: 6.00 Build 0)  -->
<svg version="1.1" id="Слой_1" xmlns="http://www.w3.org/2000/svg" xmlns:xlink="http://www.w3.org/1999/xlink" x="0px" y="0px"
	 viewBox="0 0 75 83" style="enable-background:new 0 0 75 83;" xml:space="preserve">
<style type="text/css">
	.st0{fill:#CAE3ED;stroke:#2AACDF;stroke-miterlimit:10;}
	.st1{fill:#2AACDF;}
</style>
<path class="st0" d="M13.1,50.8c3.2-1.5,7.2-1.1,7.2-1.1s-8.6,3.5-11.7,7.8C7.8,58.7,7,60,6.1,61.3c3.9-1.8,8.6-1.8,8.6-1.8
	S5.1,64.3,0.8,69.8l13.7,12.8c-2.4-21.7,14.3-39.6,24.4-47C24.4,37.7,17.1,45.3,13.1,50.8z"/>
<path class="st1" d="M70.7,0C68,23.9,40.1,21.7,35.9,19.4c6.6-0.5,11.3-0.7,15.9-2.7c-7.7-0.3-17.3-3.7-28.2-8.9
	c8.8,8.6,5.2,20.4-2.1,30.9c23.4-14.6,35.8-2.8,25.8,17.6C81.4,39.6,75.8,6.3,70.7,0z"/>
</svg>
