<?xml version="1.0" encoding="utf-8"?>
<!-- Generator: Adobe Illustrator 27.8.1, SVG Export Plug-In . SVG Version: 6.00 Build 0)  -->
<svg version="1.1" id="Слой_1" xmlns="http://www.w3.org/2000/svg" xmlns:xlink="http://www.w3.org/1999/xlink" x="0px" y="0px"
	 viewBox="0 0 67 83" style="enable-background:new 0 0 67 83;" xml:space="preserve">
<style type="text/css">
	.st0{fill:#CAE3ED;stroke:#2AACDF;stroke-miterlimit:10;}
	.st1{fill:#FFFFFF;}
	.st2{fill:#2AACDF;}
</style>
<path class="st0" d="M57.3,68.5c0.7,0.5,2.2,1.4,4.9,1.4c0.7,0,1.6-0.1,2.5-0.2c0.1-0.5,0.1-1.1-0.1-1.5c-0.4-1-1.8-1.2-2.6-1.2
	c-0.5,0-0.8,0.1-0.8,0.1s-4.6-3.8-11.9-10.2c-1.4-1.2-2.6-2.2-3.6-3.2c-1.1,0.3-2.2,0.5-3.3,0.5c0.1,0.1,0.3,0.3,0.4,0.4
	C44.7,56.7,50,61.7,57.3,68.5z"/>
<path class="st0" d="M15.9,22.5C10.8,15.8,6.6,8.6,4.1,0.6C0.7,7.4-0.2,14.8,0.9,21.5c0.6,3.8,1.8,7.4,3.4,10.9
	c7.3,1.3,13.8,4.5,18.6,9.6c1.1,1.1,2,2.3,2.9,3.6c0.1-0.1,0.1-0.1,0.1-0.2c0.1-0.2,0.3-0.4,0.4-0.5c1.1-1.4,1.9-3.5,2.5-4.9
	c0.1-0.3,0.2-0.6,0.3-0.8c0.3-0.6,0.6-1.2,1-1.7C24.4,31.9,20.8,28.9,15.9,22.5z"/>
<path class="st1" d="M13.9,42.9c1.2,4.9,3.7,7.2,6.6,8.3c1.3-1.2,2.3-2.3,3.1-3.1C21,47.8,17.5,46.8,13.9,42.9z"/>
<path class="st0" d="M50.2,73.9c0.7,1.6,0.4,2.7,0,4.6c-0.2,1.7,1.5,2.5,3,2.5c0.7,0,1.3-0.2,1.8-0.5c2.7-1.8,4.5-2.6,5.7-2.6
	c1.9,0,2.2,1.9,2.4,4.1c0,0,6.9-7,0.2-10.4c-0.4,0-0.8,0-1.1,0c-1,0-2-0.1-2.9-0.3c-1.8-0.5-3.6-1.1-4.8-2.3
	c-3.9-3.5-9.6-8.9-15.2-14.9c-0.1,0-0.2,0-0.3,0c-1.1,0-2.5,0-3,0.2c-0.3,0.1-0.6,0.3-0.9,0.4c0.9,1,1.7,2.1,2.6,3.1
	C41.6,62.7,49.5,72.2,50.2,73.9z"/>
<path class="st2" d="M62.4,32.3c1.6-3.4,2.8-7,3.4-10.9c1-6.7,0.2-14-3.3-20.9c-2.5,8-6.7,15.3-11.8,21.9c-5.2,6.8-8.9,9.7-15,15.8
	c-0.4-0.3-1.1-0.5-1.8-0.5c-1,0-2.1,0.5-2.8,2.2c-0.6,1.5-1.6,4.3-3.1,6.3c-1.5,1.9-3.2,4.3-10.6,10.7C10.1,63.2,5.5,67.1,5.5,67.1
	s-0.3,0-0.8,0c-0.9,0-2.2,0.2-2.6,1.2c-0.2,0.4-0.2,1-0.1,1.5c0.9,0.2,1.8,0.2,2.5,0.2c2.7,0,4.2-0.9,4.9-1.4
	c7.3-6.9,12.6-11.9,14.5-13.9c2.5-2.6,7.9-8.7,7.9-8.7s0.8,0.4,1.7,0.4c0.4,0,0.8-0.1,1.3-0.3c-0.5,0.7-2,2.2-2.6,2.9
	c-6.8,7.9-14.9,15.6-20,20.2c-1.2,1.1-3,1.8-4.8,2.2c-0.9,0.2-1.9,0.3-2.9,0.3c-0.4,0-0.8,0-1.1,0c-6.7,3.4,0.2,10.4,0.2,10.4
	C3.7,79.9,4,78,6,78c1.2,0,3,0.7,5.7,2.6c0.5,0.3,1.1,0.5,1.8,0.5c1.6,0,3.2-0.8,3-2.5c-0.5-1.9-0.7-3,0-4.6
	c0.8-1.7,8.6-11.2,12.6-15.8c1.8-2.1,3.3-4.6,6-5.7c3.5-1.4,14.8,2.6,17.7-9.6c-4,4.4-8,5.2-10.5,5.2c-1.4,0-2.4-0.3-2.7-0.3
	c1.1-2.1,2.5-4.1,4.2-5.9C48.6,36.8,55.1,33.7,62.4,32.3z"/>
</svg>
