<?xml version="1.0" encoding="utf-8"?>
<!-- Generator: Adobe Illustrator 27.8.1, SVG Export Plug-In . SVG Version: 6.00 Build 0)  -->
<svg version="1.1"
	 id="svg2" xmlns:rdf="http://www.w3.org/1999/02/22-rdf-syntax-ns#" xmlns:sodipodi="http://sodipodi.sourceforge.net/DTD/sodipodi-0.dtd" xmlns:svg="http://www.w3.org/2000/svg" xmlns:inkscape="http://www.inkscape.org/namespaces/inkscape" xmlns:dc="http://purl.org/dc/elements/1.1/" xmlns:cc="http://web.resource.org/cc/" sodipodi:version="0.32"
	 xmlns="http://www.w3.org/2000/svg" xmlns:xlink="http://www.w3.org/1999/xlink" x="0px" y="0px" viewBox="0 0 466 466"
	 style="enable-background:new 0 0 466 466;" xml:space="preserve">
<style type="text/css">
	.st0{fill:#CAE3ED;}
	.st1{fill:#2AACDF;}
</style>
<sodipodi:namedview  bordercolor="#666666" borderopacity="1.0" gridtolerance="10.0" guidetolerance="10.0" id="base" inkscape:current-layer="svg2" inkscape:cx="233" inkscape:cy="232.42752" inkscape:guide-bbox="true" inkscape:pageopacity="0.0" inkscape:pageshadow="2" inkscape:window-height="712" inkscape:window-width="1024" inkscape:window-x="0" inkscape:window-y="0" inkscape:zoom="0.87339056" objecttolerance="10.0" pagecolor="#ffffff" showguides="true">
	</sodipodi:namedview>
<path id="path1366" class="st0" d="M234.3,462.7c-127,0-230-103-230-230s103-230,230-230s230,103,230,230S361.3,462.7,234.3,462.7
	L234.3,462.7z"/>
<path id="path1351" class="st1" d="M2.2,217.3C7.4,117.7,85,28,182.5,7.5c81.4-18.8,171.4,10.6,225.4,74.4
	c39.4,45.3,60.1,106.1,55.6,166c-3.9,94.9-74.2,181.7-165.4,207.3c-33.5,10.5-69.5,10.4-104,6.2C106.2,447,30.3,377.9,9.1,291.2
	C3.2,267.2,0.1,242,2.2,217.3z M16.4,181.8c20.7-42.3,68.8-68.4,115.6-62.4c55.1,4.8,100.7,54.9,101.7,110.1
	c-1.4,46.2,27.3,91.7,70.6,108.4C351.6,358,411.1,340.7,440,298c25.8-35,20.3-81.8,11.4-121.6C428.8,84.5,342.6,13.3,248.1,8.2
	C162.8,1.5,76.7,48.4,35.9,123.6c-10.2,18.8-22,45.5-22.3,63.1l1.2-1.9L16.4,181.8L16.4,181.8z M319,226.8
	c4.5-23.3,38.7-30.3,51.7-10.3c16,20.6-5.8,52.9-31.2,44.8C324.9,257.7,315.7,241.5,319,226.8z M92.3,238.5
	c3.6,28.6,49.3,29.3,53.7,0.8c5.9-22.6-22.3-42.2-41.5-28.9C95.8,216.1,89.1,228.1,92.3,238.5z"/>
</svg>
