<?xml version="1.0" encoding="utf-8"?>
<!-- Generator: Adobe Illustrator 27.8.1, SVG Export Plug-In . SVG Version: 6.00 Build 0)  -->
<svg version="1.1" id="Слой_1" xmlns="http://www.w3.org/2000/svg" xmlns:xlink="http://www.w3.org/1999/xlink" x="0px" y="0px"
	 viewBox="0 0 81 76" style="enable-background:new 0 0 81 76;" xml:space="preserve">
<style type="text/css">
	.st0{fill:#CAE3ED;stroke:#2AACDF;stroke-miterlimit:10;}
</style>
<path class="st0" d="M48.6,33.8L48.6,33.8L48.6,33.8c0.6-4.3,4.9-7.9,8.3-13.4c0.2,0.6-0.4,4.6-2.4,8.2c4.4-2.8,10.2-5.1,16.1-8.9
	C70.3,21.3,60.4,35.2,48.6,33.8z M64.2,64.7c-7.1-9.3-15.5-14.8-17.4-22.4C59.4,45.1,64.6,63,64.2,64.7z M16.2,64.7
	C15.8,62.9,21,45,33.6,42.3C31.7,49.9,23.4,55.4,16.2,64.7z M10,19.7c5.8,3.8,11.6,6.1,16.1,8.9c-2-3.6-2.6-7.6-2.4-8.2
	c3.4,5.6,7.6,9.1,8.3,13.4l0,0C20.1,35.2,10.2,21.3,10,19.7z M80.6,2.8c0-0.7-0.1-1.4-0.1-2.1c-1.4,1.9-3.1,3.7-4.9,5.3
	c-4.1,3.5-8.9,6-13.6,8.7c-4.6,2.7-9.3,5.6-12.9,9.5c-2.2,2.4-4,5.2-5.4,8.2l0,0c0-1.5-0.3-2.6-0.8-3.4c0.1-0.2,0.3-0.5,0.4-0.7
	c1.5-2.6,2.8-5.4,4.6-7.5c0.8-0.9,1.7-1.7,2.7-2.3c0.2-0.1,0.4-0.2,0.6-0.3c-1.5-0.1-2.9,0.2-4.1,0.9c-2.2,1.2-3.7,3.6-4.7,6.3
	c-0.3,0.8-0.6,1.6-0.8,2.5c-0.9-0.5-2-0.5-2.9,0c-0.2-0.8-0.5-1.7-0.8-2.5c-1-2.7-2.5-5.1-4.7-6.3c-1.2-0.7-2.6-1-4.1-0.9
	c0.2,0.1,0.4,0.2,0.6,0.3c1,0.6,1.9,1.4,2.7,2.3c1.8,2.2,3.1,5,4.6,7.5c0.1,0.2,0.3,0.5,0.4,0.7c-0.5,0.8-0.8,1.9-0.8,3.2
	c-1.3-2.9-3.1-5.6-5.3-7.9c-3.6-3.9-8.3-6.8-12.9-9.5C13.9,12,9.1,9.5,5.1,6c-1.9-1.6-3.6-3.4-5-5.3C0.1,1.4,0,2.1,0,2.8
	C-0.1,7,0.6,11.1,2.1,15c3.1,8.1,9.5,14.8,17.1,18.9c1.1,0.6,2.2,1.1,3.3,1.6c-0.5-0.1-1-0.1-1.6-0.2c-2.4-0.2-4.8-0.4-7.1-1
	c-1-0.3-2.1-0.6-3-1c0.1,0.2,0.2,0.5,0.3,0.7c0.7,1.3,1.8,2.5,3.1,3.5c2.3,1.8,5.4,2.9,8.6,3.4c3.9-2.2,7.5-3,7.5-3s-1.8,1.2-4.2,3
	c-1.1,0.8-2.3,1.8-3.4,2.9c-5.2,5.1-8.8,11.9-9.6,19.2c-0.4,3.6,0,7.3,1,10.7c0.2,0.6,0.4,1.2,0.6,1.8c0.7-2,1.8-3.8,2.9-5.6
	c2.6-3.9,6.1-7.1,9.4-10.4c3.3-3.3,6.5-6.8,8.7-10.9c0.7-1.2,1.2-2.5,1.6-3.9c0.6,6.1,1.6,12,2.9,17.2c1.3-5.3,2.3-11.3,2.9-17.6
	c0.5,1.5,1.1,2.9,1.8,4.3c2.2,4.1,5.4,7.6,8.7,10.9C57,63,60.4,66.2,63,70.1c1.2,1.7,2.2,3.6,2.9,5.6c0.2-0.6,0.4-1.2,0.6-1.8
	c1-3.5,1.4-7.1,1-10.7c-0.8-7.5-4.6-14.5-10.1-19.7c-0.8-0.8-1.7-1.5-2.6-2.2l0,0c-2.5-2-4.5-3.3-4.5-3.3s3.5,0.8,7.4,3
	c3.1-0.5,6.1-1.7,8.4-3.4c1.3-1,2.4-2.2,3.1-3.5c0.1-0.2,0.2-0.5,0.3-0.7c-0.9,0.4-2,0.8-3,1c-2.3,0.6-4.7,0.8-7.1,1
	c-0.5,0-1,0.1-1.4,0.1c1.1-0.5,2.2-1,3.3-1.6c7.7-4.1,14-10.8,17.1-18.9C80,11.1,80.7,7,80.6,2.8z"/>
</svg>
