<?xml version="1.0" encoding="utf-8"?>
<!-- Generator: Adobe Illustrator 27.8.1, SVG Export Plug-In . SVG Version: 6.00 Build 0)  -->
<svg version="1.1" id="Слой_1" xmlns="http://www.w3.org/2000/svg" xmlns:xlink="http://www.w3.org/1999/xlink" x="0px" y="0px"
	 viewBox="0 0 74 80" style="enable-background:new 0 0 74 80;" xml:space="preserve">
<style type="text/css">
	.st0{fill:#2AACDF;}
	.st1{fill:#CAE3ED;stroke:#2AACDF;stroke-miterlimit:10;}
</style>
<path class="st0" d="M6.2,27.4c0-5.2,1.2-10,3.3-14.3c-3.3,5.3-5.2,11.5-5.2,18.3c0,15,9.6,27.7,22.7,32c0.6-1.9,1.2-3.7,1.7-5.5
	C15.8,54.2,6.2,41.9,6.2,27.4z"/>
<path class="st0" d="M73.7,35.7c0-4.7-0.9-9.2-2.5-13.3c0.7,2.7,1,5.5,1,8.4c0,15.7-10.4,29-24.7,33.6c0.3,0.8,0.5,1.6,0.8,2.4
	c-2.2,1.5-3.9,3.3-5.6,5.3C60.2,69.1,73.7,54,73.7,35.7z"/>
<path class="st0" d="M69.4,30.7c0-6.5-1.9-12.5-5.2-17.6c2.1,4.1,3.3,8.8,3.3,13.8c0,14.1-9.6,25.9-22.5,29.4
	c0.6,1.7,1.1,3.5,1.7,5.3C59.8,57.4,69.4,45.2,69.4,30.7z"/>
<path class="st0" d="M25.4,66.6c0.3-0.8,0.5-1.6,0.8-2.4C11.9,59.7,1.5,46.4,1.5,30.7c0-2.9,0.3-5.7,1-8.4C0.9,26.5,0,31,0,35.7
	C0,54,13.4,69.2,31,71.9C29.3,69.9,27.6,68.2,25.4,66.6z"/>
<path class="st0" d="M36.8,72.5c-2-2.8-4.1-5.2-6.5-7.4c0.6-2,1.2-4,1.8-5.9c1.3-4.3,2.6-8.4,3.7-12.4c0.4-1.3,0.7-2.5,1-3.6
	c0.3,1.2,0.7,2.4,1,3.7c1.1,4,2.4,8.1,3.7,12.4c0.6,1.9,1.2,3.8,1.8,5.9C40.9,67.3,38.8,69.7,36.8,72.5z M48.3,66.6
	c-0.3-0.8-0.5-1.6-0.8-2.4c-0.3-0.9-0.6-1.8-0.9-2.7c-0.6-1.8-1.2-3.6-1.7-5.3c-1.1-3.3-2.1-6.4-3-9.5c-1.8-6.1-3.2-12.2-5.1-21.2
	c-1.9,9.1-3.3,15.1-5.1,21.2c-0.9,3.1-1.9,6.2-2.9,9.5c-0.6,1.7-1.1,3.5-1.7,5.3c-0.3,0.9-0.6,1.8-0.9,2.7c-0.2,0.8-0.5,1.6-0.8,2.4
	c2.1,1.5,3.9,3.3,5.6,5.3c1.9,2.3,3.7,4.9,5.8,8.1c2.1-3.2,3.9-5.8,5.8-8.1C44.3,69.9,46.1,68.2,48.3,66.6z"/>
<path class="st1" d="M36.9,1.1c-13.3,0-24.1,10.8-24.1,24.1c0,7.4,3.4,14.1,8.7,18.5c-2.9-3.5-4.6-7.9-4.6-12.7c0-11,9-20,20.1-20
	s20.1,8.9,20.1,20c0,4.8-1.7,9.3-4.6,12.7c5.3-4.4,8.7-11,8.7-18.5C61.1,11.9,50.3,1.1,36.9,1.1z"/>
</svg>
