<?xml version="1.0" encoding="utf-8"?>
<!-- Generator: Adobe Illustrator 27.8.1, SVG Export Plug-In . SVG Version: 6.00 Build 0)  -->
<svg version="1.1" id="Слой_1" xmlns="http://www.w3.org/2000/svg" xmlns:xlink="http://www.w3.org/1999/xlink" x="0px" y="0px"
	 viewBox="0 0 77 81" style="enable-background:new 0 0 77 81;" xml:space="preserve">
<style type="text/css">
	.st0{fill:#CAE3ED;stroke:#2AACDF;stroke-miterlimit:10;}
</style>
<path class="st0" d="M66.9,18.2c-4.8-0.4-9.3,2.9-10.2,7.7c0,0.2-0.1,0.3-0.1,0.5c-4.2-1.3-8.9-1.2-13,0.4c-2.7,1-5.2,2.6-7.4,4.4
	c4.4,1.1,8,1.1,11.4-1.3c0,0-2.6,4.3-11.2,4.3c-0.7,0-1.5,0-2.3-0.1c-5.2-0.4-8.6-2.5-11.4-5.8c-2.6-2.7-3.9-6.7-3.4-10.5
	c0.3-2.7,1.5-5.2,3.2-7.4c2.8-2.7,4-2.8,5.2-3c1.5-0.3,3.3,0.4,4.4,1.6c0.7,0.7,1.1,1.8,1.3,2.9c0.4,2.4-0.8,4.9-2.8,6.4
	c-2,1.6-5,2.2-7.8,1.4l-0.2,0.5c5.4,2.5,12.1,0,14.1-5.7C37.9,11,36.9,7,34.3,4.5c4.7-0.4,9.6,1,13.4,3.9c2.6,1.9,4.8,4.5,6.4,7.4
	c0.1,0.2,0.3,0.2,0.5,0.2c0.2-0.1,0.3-0.3,0.2-0.5C52.2,8.9,46.6,3.5,39.7,1.6c-7.1-2.1-15.6-0.4-21,4.9c-2.5,2.4-4.5,5.4-5.6,8.7
	c0-0.1,0-0.1,0-0.1c-1.4,3.8-1.4,5.7-1.9,6.9c-0.5,1.3-1.7,2.2-3.1,2.4c-0.9,0.1-1.9,0-2.8-0.4c-2-0.8-3.2-2.9-3.4-5
	c-0.2-2.2,0.7-4.7,2.5-6.4l-0.3-0.3c-4.4,2.8-5.6,8.9-2.2,13c2.6,3.2,7.4,4.1,11,1.9c1,3.6,3,6.8,5.8,9.3c2.3,2.1,5,3.6,7.9,4.8
	c-2-4.2-4.5-7-8.6-8c0,0,5.9-1.1,12.1,7.4c0.7,0.9,1.2,1.8,1.7,2.6c1.5,2.8,2.1,5.3,2,8c0.1,1,0,1.9-0.2,2.8c0,0.2-0.1,0.4-0.1,0.6
	c-0.2,0.6-0.3,1.1-0.6,1.7c-1.4,3.3-4.3,5.7-7.7,6.8c0,0,0.1,0,0.1,0c-6.4,0.8-7.4-0.2-8.6-0.9c-1.4-0.8-2.2-2.5-2.2-4.1
	c0-1,0.3-2.1,0.9-3c1.3-2.1,3.8-3.1,6.3-3c2.6,0.1,5.2,1.7,6.9,4l0.4-0.2c-2.4-5.4-9.1-7.9-14.4-4.9c-2.9,1.7-4.7,4.7-4.9,8
	c-1.1-1.1-2.1-2.4-2.9-3.9c-3-5.3-3-12-0.6-17.6c0.2-0.4-0.4-0.7-0.7-0.3c-3.3,5.7-4.1,13-1.6,19.3c2.6,6.6,8.8,11.8,16,12.8
	c1.9,0.3,3.8,0.3,5.7,0.1c1.1-0.1,1.9-0.2,2.5-0.1c1.4,0.1,2.6,1,3.2,2.3c0.4,0.8,0.5,1.8,0.4,2.7c-0.3,2.1-1.8,3.9-3.8,4.7
	c-2.1,0.9-4.7,0.6-6.9-0.6l-0.3,0.4c3.9,3.4,10.1,2.8,13.1-1.6c2.2-3.2,1.9-7.5-0.6-10.4c0.8-0.5,1.5-1,2.2-1.6
	c4.1-3.3,6.8-8.3,7.2-13.6c0.2-2.3-0.1-4.6-0.6-6.9c-3.1,3.9-4.7,7.5-3.7,11.8c0,0-3.6-4.7,1.2-14c0.4-0.8,0.9-1.6,1.3-2.3
	c2.4-3.7,5.5-5.7,9.7-6.4c0,0,0,0,0.1,0c0.1,0,0.2,0,0.3,0c0,0,0,0,0.1,0c3.1-0.4,6.4,0.4,9,2.1c2.3,1.5,4.1,3.9,5.2,6.4
	c0.7,1.5,1.1,3.1,1.2,4.7c0,0.3,0,0.5,0,0.8c0,1.6-1,3.1-2.4,3.9c-0.9,0.5-2,0.7-3.2,0.7c-2.5-0.2-4.7-1.9-5.8-4.1
	c-1.2-2.4-1.1-5.5,0.2-8.1l-0.4-0.3c-3.7,4.8-2.6,12,2.7,15.2c2.2,1.4,4.7,1.8,7,1.2c-1.9,3.9-5.1,7.1-9.1,8.9
	c-2.9,1.4-6.2,2.2-9.5,2.3c-0.2,0-0.3,0.1-0.4,0.3c0,0.2,0.1,0.4,0.3,0.4c7,0.6,14.3-1.8,19.2-7c5.2-5.3,7.5-13.6,5.2-20.8
	c-1.2-4.2-3.8-8-7.3-10.7c-2-1.6-1.3-4.6-0.4-5.9c0.5-0.8,1.4-1.5,2.5-2c2.2-0.9,4.9-0.4,6.8,1.1c2,1.5,3.3,4.2,3.3,7.1l0.5,0
	C77,24.4,72.9,18.6,66.9,18.2z"/>
</svg>
