<?xml version="1.0" encoding="utf-8"?>
<!-- Generator: Adobe Illustrator 27.8.1, SVG Export Plug-In . SVG Version: 6.00 Build 0)  -->
<svg version="1.1" id="Слой_1" xmlns="http://www.w3.org/2000/svg" xmlns:xlink="http://www.w3.org/1999/xlink" x="0px" y="0px"
	 viewBox="0 0 95 83" style="enable-background:new 0 0 95 83;" xml:space="preserve">
<style type="text/css">
	.st0{fill:#CAE3ED;stroke:#2AACDF;stroke-miterlimit:10;}
	.st1{fill:#2AACDF;}
	.st2{fill:#FFFFFF;}
</style>
<path class="st0" d="M60.1,40.1l-0.4,7.2l6.8,13.2l-1.9-14.7L60.1,40.1z"/>
<path class="st0" d="M76.8,28.8l2.5,5.3l9.9,6.9l-7-9.7L76.8,28.8z"/>
<path class="st0" d="M30.3,45.8l-1.9,14.7l6.8-13.2l-0.4-7.2L30.3,45.8z"/>
<path class="st0" d="M12.7,31.3l-7,9.7l9.9-6.9l2.5-5.3L12.7,31.3z"/>
<path class="st1" d="M69.6,28.3l-4.6-11.1c0.8-0.8,1.5-1.6,2.2-2.5l9.7,5.4C74.9,23.2,72.4,26,69.6,28.3z M53.3,35.7l1.6-12.4
	c0.6-0.2,1.1-0.4,1.7-0.6l7.4,9.4C60.7,33.8,57.1,35,53.3,35.7z M82.2,3.3c-0.2,4.2-1.1,8.3-2.7,12l-8.4-8.3
	c0.3-1.2,0.6-2.4,0.8-3.7H82.2z M30.9,32.1l7.4-9.4c0.5,0.2,1.1,0.4,1.7,0.6l1.6,12.4C37.8,35,34.2,33.8,30.9,32.1z M18,20.1
	l9.7-5.4c0.7,0.9,1.4,1.7,2.2,2.5l-4.6,11.1C22.4,26,19.9,23.2,18,20.1z M12.6,3.3H23c0.2,1.3,0.4,2.5,0.8,3.7l-8.4,8.3
	C13.8,11.5,12.8,7.5,12.6,3.3z M79.3,21.5l15,8.4L81.6,17.3C83.8,12.6,85,7.4,85,1.9V0.6h-18c0,0.9-0.1,1.8-0.2,2.7
	c-1.3,7.7-7.2,14-14.9,15.7c-0.2,1.3-0.5,3.1-0.9,5.2c-0.5,3.5-1.1,7.9-1.7,11.9c-0.1,0.9-0.3,1.9-0.4,2.7c-0.7,4.6-1.2,8.6-1.5,10
	c-0.3-1.4-0.9-5.3-1.5-10c-0.1-0.9-0.3-1.8-0.4-2.7c-0.6-4.1-1.2-8.4-1.7-11.9c-0.3-2.1-0.6-3.9-0.9-5.2C35.3,17.2,29.3,11,28,3.3
	c-0.1-0.9-0.2-1.8-0.2-2.7h-18v1.3c0,5.5,1.2,10.7,3.4,15.4L0.5,29.8l15-8.4c2.3,3.6,5.2,6.9,8.7,9.5l-8.6,20.6l13.6-17.3
	c3.9,2.1,8.1,3.6,12.7,4.2l5.6,44.2L53,38.5c4.5-0.7,8.8-2.1,12.7-4.2l13.6,17.3L70.7,31C74.1,28.3,77,25.1,79.3,21.5z"/>
<path class="st2" d="M30.6,0.6c0,0.9,0.1,1.8,0.3,2.7c1.5,7.7,8.3,13.5,16.6,13.5c8.2,0,15.1-5.8,16.6-13.5c0.2-0.9,0.3-1.8,0.3-2.7
	H30.6z"/>
</svg>
