<?xml version="1.0" encoding="utf-8"?>
<!-- Generator: Adobe Illustrator 27.8.1, SVG Export Plug-In . SVG Version: 6.00 Build 0)  -->
<svg version="1.1" id="Слой_1" xmlns="http://www.w3.org/2000/svg" xmlns:xlink="http://www.w3.org/1999/xlink" x="0px" y="0px"
	 viewBox="0 0 72 77" style="enable-background:new 0 0 72 77;" xml:space="preserve">
<style type="text/css">
	.st0{fill:#CAE3ED;stroke:#2AACDF;stroke-miterlimit:10;}
</style>
<path class="st0" d="M35.7,52.5c-1.7-8.9-4.6-17.4-8.4-25c3.9-5.3,6.5-10.3,8-14.8c0.3,0,0.6,0,0.9,0c1.4,4.5,4.1,9.4,8,14.8
	C40.3,35.2,37.3,43.7,35.7,52.5z M59.4,35.5c-1.5-1.4-3.3-3.3-5.1-5.4c-0.6-0.7-1.2-1.4-1.8-2.1C58,17.7,64.3,8.3,71.4,0.1
	c-5.7,2.2-16.6,3.4-28.3,3.8c0.6,3.3,1.7,6.2,2.6,8.4c4-0.4,7.5-0.9,9.6-1.7c-2.8,3.2-5.4,6.8-7.7,10.6c-1.9-2.9-3.5-5.8-4.7-8.7
	c-0.3-0.8-0.6-1.7-0.8-2.5c-0.5-1.5-1-3.1-1.4-4.8c-0.1-0.4-0.2-0.8-0.3-1.3c-1.6,0-3.2,0-4.8,0c-1.6,0-3.2,0-4.7,0
	c-0.1,0.4-0.2,0.8-0.3,1.3c-0.4,1.9-1,3.8-1.5,5.4c-0.2,0.6-0.4,1.3-0.7,1.9c-1.1,2.9-2.8,5.8-4.7,8.7c-2.3-3.8-4.9-7.4-7.7-10.6
	c2.1,0.8,5.6,1.4,9.7,1.7c0.9-2.2,1.9-5.1,2.6-8.4C16.6,3.5,5.7,2.3,0,0.1c7.1,8.2,13.4,17.6,18.8,27.8c-0.6,0.7-1.2,1.4-1.8,2.1
	c-1.8,2.1-3.6,4-5.1,5.4C9,27,7.9,19.2,7.5,14.1C5.4,11,3.1,7.9,0.8,5c0.4,11.3,3.8,46.5,31.4,66.9c-0.7-3.3-1.5-6.6-2.5-9.8
	c-7-6-11.8-13.1-15.1-20.2c1.6-1.4,3.5-3.3,5.6-5.6c0.6-0.7,1.2-1.4,1.8-2.1c6.2,13.1,11,27.4,13.7,42.4
	c2.8-14.9,7.5-29.2,13.7-42.4c0.6,0.7,1.2,1.4,1.8,2.1c2.1,2.3,4,4.2,5.6,5.6c-3.3,7.1-8.1,14.3-15.1,20.2c-0.9,3.3-1.7,6.5-2.5,9.8
	C66.9,51.5,70.3,16.3,70.6,5c-2.4,2.9-4.6,5.9-6.8,9.1C63.5,19.2,62.4,27,59.4,35.5z"/>
</svg>
